# xmcd
#
# Track frame offsets: 
#        150
#        18260
#        34472
#        50527
#        72573
#        90692
#        119059
#        131884
#
# Disc length: 1948 seconds
#
# Revision: 0
# Processed by: cddbd v1.5.2PL0 Copyright (c) Steve Scherf et al.
# Submitted via: ExactAudioCopyFreeDBPlugin 1.0
#
DISCID=79079a08
DTITLE=Friar's Point with Bev Conklin - Live At Sun Studios
DYEAR=2011
DGENRE=Blues
TTITLE0=Turn the Other Way
TTITLE1=You Must Think I'm Blind
TTITLE2=I Got a Feeling Called the Blues
TTITLE3=Art For Money
TTITLE4=To the Point
TTITLE5=Dirty Money
TTITLE6=Be Your Man
TTITLE7=Night Out
EXTD=
EXTT0=
EXTT1=
EXTT2=
EXTT3=
EXTT4=
EXTT5=
EXTT6=
EXTT7=
PLAYORDER=
